<?xml version="1.0" encoding="UTF-8"?><!DOCTYPE svg PUBLIC "-//W3C//DTD SVG 1.1//EN" "http://www.w3.org/Graphics/SVG/1.1/DTD/svg11.dtd"><svg xmlns="http://www.w3.org/2000/svg" xmlns:xlink="http://www.w3.org/1999/xlink"><symbol id="bandcamp">
    <path d="M48.875 0C21.882 0 0 21.882 0 48.875S21.882 97.75 48.875 97.75 97.75 75.868 97.75 48.875 75.868 0 48.875 0zm15.96 70.857H12.593l20.32-43.965h52.244L64.835 70.857z"/>
</symbol><symbol id="facebook">
    <path d="M48.875 0C21.882 0 0 21.882 0 48.875S21.882 97.75 48.875 97.75 97.75 75.868 97.75 48.875 75.868 0 48.875 0zm18.646 24.89-6.76.003c-5.301 0-6.326 2.519-6.326 6.215v8.15h12.641l-.006 12.765H54.436v32.758H41.251V52.023H30.229V39.258h11.022v-9.414c0-10.925 6.675-16.875 16.42-16.875l9.851.015V24.89h-.001z"/>
</symbol><symbol id="tumblr">
    <path d="M48.875 0C21.883 0 0 21.882 0 48.875S21.883 97.75 48.875 97.75 97.75 75.868 97.75 48.875 75.867 0 48.875 0zM36.912 64.17l.006-20.496h-7.646V34.1c5.777-1.646 10.762-7.786 12.598-14.292.705-2.834.779-4.757.779-4.757h10.863v17.458h12.705v11.017H53.442v6.378c.002 4.281-.016 8.564.006 12.847 0 11.349 10.9 6.688 11.894 6.472l3.14 10.362c-2.718 2.875-31.57 9.892-31.57-15.415z"/>
</symbol><symbol id="twitter">
    <path d="M48.875 0C21.882 0 0 21.882 0 48.875S21.882 97.75 48.875 97.75 97.75 75.868 97.75 48.875 75.868 0 48.875 0zM78.43 35.841c.023.577.035 1.155.035 1.736 0 20.878-15.887 42.473-42.473 42.473a42.306 42.306 0 0 1-22.883-6.708.36.36 0 0 1-.145-.427.365.365 0 0 1 .383-.237c1.148.137 2.322.205 3.487.205 6.323 0 12.309-1.955 17.372-5.664a15.157 15.157 0 0 1-13.161-10.478.364.364 0 0 1 .073-.351.365.365 0 0 1 .339-.115 14.55 14.55 0 0 0 5.04.072c-6.259-1.945-10.658-7.808-10.658-14.483l.002-.194a.362.362 0 0 1 .537-.309 14.493 14.493 0 0 0 5.291 1.711A15.144 15.144 0 0 1 15.96 31.21c0-2.682.71-5.318 2.054-7.623a.36.36 0 0 1 .284-.178.354.354 0 0 1 .309.132c7.362 9.03 18.191 14.59 29.771 15.305a15.344 15.344 0 0 1-.291-2.985c0-8.361 6.802-15.162 15.162-15.162 4.11 0 8.082 1.689 10.929 4.641a29.23 29.23 0 0 0 9.09-3.508.363.363 0 0 1 .41.028c.116.094.164.25.118.394a15.14 15.14 0 0 1-5.33 7.489 29.15 29.15 0 0 0 6.831-2.072.361.361 0 0 1 .447.533 30.22 30.22 0 0 1-7.314 7.637z"/>
</symbol><symbol id="vk">
    <path d="M48.875 0C21.883 0 0 21.882 0 48.875S21.883 97.75 48.875 97.75 97.75 75.868 97.75 48.875 75.867 0 48.875 0zm24.792 54.161c2.278 2.225 4.688 4.319 6.733 6.774.906 1.086 1.76 2.209 2.41 3.472.928 1.801.09 3.776-1.522 3.883l-10.013-.002c-2.586.214-4.644-.829-6.379-2.597-1.385-1.409-2.67-2.914-4.004-4.371-.545-.598-1.119-1.161-1.803-1.604-1.365-.888-2.551-.616-3.333.81-.797 1.451-.979 3.059-1.055 4.674-.109 2.361-.821 2.978-3.19 3.089-5.062.237-9.865-.531-14.329-3.083-3.938-2.251-6.986-5.428-9.642-9.025-5.172-7.012-9.133-14.708-12.692-22.625-.801-1.783-.215-2.737 1.752-2.774 3.268-.063 6.536-.055 9.804-.003 1.33.021 2.21.782 2.721 2.037 1.766 4.345 3.931 8.479 6.644 12.313.723 1.021 1.461 2.039 2.512 2.76 1.16.796 2.044.533 2.591-.762.35-.823.501-1.703.577-2.585.26-3.021.291-6.041-.159-9.05-.28-1.883-1.339-3.099-3.216-3.455-.956-.181-.816-.535-.351-1.081.807-.944 1.563-1.528 3.074-1.528l11.313-.002c1.783.35 2.183 1.15 2.425 2.946l.01 12.572c-.021.695.349 2.755 1.597 3.21 1 .33 1.66-.472 2.258-1.105 2.713-2.879 4.646-6.277 6.377-9.794.764-1.551 1.423-3.156 2.063-4.764.476-1.189 1.216-1.774 2.558-1.754l10.894.013c.321 0 .647.003.965.058 1.836.314 2.339 1.104 1.771 2.895-.894 2.814-2.631 5.158-4.329 7.508-1.82 2.516-3.761 4.944-5.563 7.471-1.656 2.31-1.525 3.473.531 5.479z"/>
</symbol></svg>